<svg xmlns="http://www.w3.org/2000/svg" viewBox="0 0 32 32">
  <defs>
    <linearGradient id="g1" x1="0%" y1="0%" x2="100%" y2="100%">
      <stop offset="0%" style="stop-color:#4169e1"/>
      <stop offset="100%" style="stop-color:#8a2be2"/>
    </linearGradient>
    <linearGradient id="g2" x1="0%" y1="0%" x2="100%" y2="100%">
      <stop offset="0%" style="stop-color:#ff6b6b"/>
      <stop offset="100%" style="stop-color:#ffa500"/>
    </linearGradient>
    <linearGradient id="g3" x1="0%" y1="0%" x2="100%" y2="100%">
      <stop offset="0%" style="stop-color:#00bfff"/>
      <stop offset="100%" style="stop-color:#9370db"/>
    </linearGradient>
    <linearGradient id="g4" x1="0%" y1="0%" x2="100%" y2="100%">
      <stop offset="0%" style="stop-color:#ff1493"/>
      <stop offset="100%" style="stop-color:#9400d3"/>
    </linearGradient>
    <linearGradient id="g5" x1="0%" y1="0%" x2="100%" y2="100%">
      <stop offset="0%" style="stop-color:#ffd700"/>
      <stop offset="100%" style="stop-color:#ff4500"/>
    </linearGradient>
  </defs>
  <rect width="32" height="32" rx="6" fill="#0a0a0a"/>
  <g transform="translate(16,16)">
    <rect x="-1.5" y="-8" width="3" height="10" rx="1.5" fill="url(#g1)" transform="rotate(15)"/>
    <rect x="2" y="-7" width="3" height="9" rx="1.5" fill="url(#g2)" transform="rotate(45)"/>
    <rect x="-3" y="-6" width="2.5" height="8" rx="1.25" fill="url(#g3)" transform="rotate(-30)"/>
    <rect x="4" y="-5" width="2" height="7" rx="1" fill="url(#g4)" transform="rotate(75)"/>
    <rect x="-5" y="-4" width="2.5" height="6" rx="1.25" fill="url(#g5)" transform="rotate(-60)"/>
    <rect x="6" y="-3" width="2" height="5" rx="1" fill="url(#g1)" transform="rotate(105)"/>
    <rect x="-7" y="-2" width="2" height="4" rx="1" fill="url(#g2)" transform="rotate(-90)"/>
    <rect x="8" y="-1" width="1.5" height="3" rx="0.75" fill="url(#g3)" transform="rotate(135)"/>
    <rect x="-9" y="0" width="1.5" height="3" rx="0.75" fill="url(#g4)" transform="rotate(-120)"/>
    <rect x="10" y="1" width="1.5" height="2.5" rx="0.75" fill="url(#g5)" transform="rotate(165)"/>
    <rect x="-11" y="2" width="1.5" height="2" rx="0.75" fill="url(#g1)" transform="rotate(-150)"/>
    <rect x="12" y="3" width="1" height="2" rx="0.5" fill="url(#g2)" transform="rotate(195)"/>
    <rect x="-13" y="4" width="1" height="1.5" rx="0.5" fill="url(#g3)" transform="rotate(-180)"/>
    <rect x="-2" y="-10" width="2.5" height="9" rx="1.25" fill="url(#g4)" transform="rotate(30)"/>
    <rect x="3" y="-9" width="2" height="8" rx="1" fill="url(#g5)" transform="rotate(60)"/>
    <rect x="-4" y="-8" width="2" height="7" rx="1" fill="url(#g1)" transform="rotate(-45)"/>
    <rect x="5" y="-7" width="1.5" height="6" rx="0.75" fill="url(#g2)" transform="rotate(90)"/>
    <rect x="-6" y="-6" width="1.5" height="5" rx="0.75" fill="url(#g3)" transform="rotate(-75)"/>
    <rect x="7" y="-5" width="1.5" height="4" rx="0.75" fill="url(#g4)" transform="rotate(120)"/>
    <rect x="-8" y="-4" width="1" height="3.5" rx="0.5" fill="url(#g5)" transform="rotate(-105)"/>
    <rect x="9" y="-3" width="1" height="3" rx="0.5" fill="url(#g1)" transform="rotate(150)"/>
    <rect x="-10" y="-2" width="1" height="2.5" rx="0.5" fill="url(#g2)" transform="rotate(-135)"/>
    <rect x="11" y="-1" width="1" height="2" rx="0.5" fill="url(#g3)" transform="rotate(180)"/>
    <rect x="-12" y="0" width="0.8" height="2" rx="0.4" fill="url(#g4)" transform="rotate(-165)"/>
    <rect x="0" y="-11" width="2" height="8" rx="1" fill="url(#g5)" transform="rotate(0)"/>
    <rect x="1" y="-10" width="1.5" height="7" rx="0.75" fill="url(#g1)" transform="rotate(20)"/>
    <rect x="-1" y="-9" width="1.5" height="6" rx="0.75" fill="url(#g2)" transform="rotate(-15)"/>
    <rect x="2" y="-8" width="1" height="5" rx="0.5" fill="url(#g3)" transform="rotate(40)"/>
    <rect x="-2" y="-7" width="1" height="4" rx="0.5" fill="url(#g4)" transform="rotate(-35)"/>
    <rect x="3" y="-6" width="1" height="3.5" rx="0.5" fill="url(#g5)" transform="rotate(55)"/>
    <rect x="-3" y="-5" width="0.8" height="3" rx="0.4" fill="url(#g1)" transform="rotate(-50)"/>
    <rect x="4" y="-4" width="0.8" height="2.5" rx="0.4" fill="url(#g2)" transform="rotate(70)"/>
    <rect x="-4" y="-3" width="0.8" height="2" rx="0.4" fill="url(#g3)" transform="rotate(-65)"/>
    <rect x="5" y="-2" width="0.6" height="2" rx="0.3" fill="url(#g4)" transform="rotate(85)"/>
    <rect x="-5" y="-1" width="0.6" height="1.5" rx="0.3" fill="url(#g5)" transform="rotate(-80)"/>
    <rect x="6" y="0" width="0.6" height="1.5" rx="0.3" fill="url(#g1)" transform="rotate(100)"/>
    <rect x="-6" y="1" width="0.5" height="1" rx="0.25" fill="url(#g2)" transform="rotate(-95)"/>
    <rect x="7" y="2" width="0.5" height="1" rx="0.25" fill="url(#g3)" transform="rotate(115)"/>
    <rect x="-7" y="3" width="0.5" height="0.8" rx="0.25" fill="url(#g4)" transform="rotate(-110)"/>
    <rect x="8" y="4" width="0.4" height="0.8" rx="0.2" fill="url(#g5)" transform="rotate(130)"/>
    <rect x="-8" y="5" width="0.4" height="0.6" rx="0.2" fill="url(#g1)" transform="rotate(-125)"/>
  </g>
</svg>